# xmcd CD database file
#
# Track frame offsets:
#	150
#	14249
#	27644
#	41654
#	66853
#	80933
#	96799
#	116130
#	142358
#	165601
#	186489
#	207940
#	227530
#	254571
#
# Disc length: 3744 seconds
#
# Revision: 0
# Processed by: cddbd v1.5.2PL0 Copyright (c) Steve Scherf et al.
# Submitted via: CDex 1.70beta2
#
DISCID=dd0e9e0e
DTITLE=Various Artist - A WOMAN'S VOICE II
DYEAR=2008
DGENRE=New Age
TTITLE0=Pia - A Woman Song
TTITLE1=Caitlin Grey - The Romany
TTITLE2=Muriel - Sacred
TTITLE3=Jaki Whitren - Water of Life
TTITLE4=Wendy Stark - Hope
TTITLE5=Caitlin Grey - Lark of the Morning
TTITLE6=Muriel - Unbroken
TTITLE7=Jaki Whitren - Sweet Thing
TTITLE8=Sarah - Just for You
TTITLE9=Pia - Beatiful
TTITLE10=Juliana - Marble Halls
TTITLE11=Caitlin Grey - Under the Western Sky
TTITLE12=Jaki Whitren - Everywhere I Go
TTITLE13=Sally Oldfield - Bird of Paradise
EXTD=YEAR: 2008
EXTT0=
EXTT1=
EXTT2=
EXTT3=
EXTT4=
EXTT5=
EXTT6=
EXTT7=
EXTT8=
EXTT9=
EXTT10=
EXTT11=
EXTT12=
EXTT13=
PLAYORDER=
